<?xml version="1.0" standalone="no"?>
<!DOCTYPE svg PUBLIC "-//W3C//DTD SVG 20010904//EN"
 "http://www.w3.org/TR/2001/REC-SVG-20010904/DTD/svg10.dtd">
<svg version="1.0" xmlns="http://www.w3.org/2000/svg"
 width="293.000000pt" height="274.000000pt" viewBox="0 0 293.000000 274.000000"
 preserveAspectRatio="xMidYMid meet">
<metadata>
Created by potrace 1.10, written by Peter Selinger 2001-2011
</metadata>
<g transform="translate(0.000000,274.000000) scale(0.100000,-0.100000)"
fill="#fff" stroke="none">
<path d="M1395 2604 c-74 -38 -93 -78 -86 -184 0 -11 17 -37 36 -59 29 -32 35
-46 35 -85 0 -39 -3 -46 -22 -50 -117 -22 -151 -31 -201 -51 l-57 -23 -22 39
c-12 22 -25 39 -29 39 -4 0 -1 12 7 28 32 61 7 146 -55 188 -79 53 -203 15
-231 -72 -30 -91 30 -200 115 -207 23 -2 33 -11 52 -46 l24 -43 -83 -78 c-46
-42 -90 -89 -97 -104 -13 -24 -41 -36 -41 -18 0 5 -16 16 -35 25 -25 12 -35
23 -35 40 0 66 -104 145 -173 132 -76 -15 -136 -83 -137 -156 -1 -97 109 -181
196 -150 31 11 40 10 79 -9 43 -21 66 -40 47 -40 -12 0 -49 -112 -63 -190 -6
-36 -16 -68 -22 -72 -18 -12 -85 -9 -92 3 -4 6 -25 24 -47 40 -102 73 -239 2
-240 -125 -2 -87 66 -156 153 -156 39 0 55 6 91 34 24 18 42 38 41 44 -2 6 12
8 36 5 21 -3 47 -1 57 5 15 9 7 11 -36 10 -47 -1 -61 -6 -93 -34 -51 -43 -95
-50 -150 -26 -69 31 -95 106 -61 177 20 43 57 67 103 67 58 -1 67 -4 112 -39
35 -27 50 -33 92 -33 28 0 48 3 45 6 -4 3 2 14 11 23 11 11 21 41 24 74 4 31
19 89 34 128 19 51 23 74 15 77 -7 2 -10 7 -7 11 2 5 -17 19 -43 33 -34 18
-54 23 -72 18 -67 -21 -140 2 -165 51 -20 38 -19 104 2 140 33 56 120 76 179
40 30 -18 64 -74 64 -103 0 -18 23 -38 71 -63 l37 -18 111 112 c61 62 111 117
111 122 0 5 -9 28 -21 50 -14 28 -31 45 -57 55 -64 26 -84 38 -100 62 -19 30
-19 114 1 142 22 32 73 60 108 60 44 0 106 -37 120 -72 12 -29 14 -112 3 -129
-8 -13 34 -93 56 -106 14 -9 33 -7 86 12 73 25 108 34 164 42 46 7 60 26 60
88 0 40 -5 56 -21 71 -69 62 -65 170 6 214 67 41 141 27 183 -34 34 -50 27
-121 -17 -165 -30 -30 -41 -56 -41 -96 0 -48 24 -71 83 -79 26 -4 86 -20 134
-36 99 -33 109 -31 142 38 19 38 20 49 10 79 -32 98 57 194 158 169 14 -4 41
-22 60 -41 28 -28 33 -40 33 -79 0 -26 -7 -60 -15 -75 -13 -26 -67 -61 -94
-61 -19 0 -70 -61 -77 -93 -6 -29 -1 -36 73 -106 44 -42 88 -88 97 -102 24
-37 48 -41 98 -14 35 19 47 32 63 76 28 73 71 103 139 96 41 -4 55 -11 83 -41
83 -90 7 -232 -114 -212 -21 3 -45 7 -53 8 -24 3 -87 -33 -100 -57 -10 -18 -7
-36 15 -101 15 -43 29 -103 32 -133 5 -41 10 -55 24 -58 11 -3 16 -9 13 -14
-3 -5 17 -9 44 -9 42 0 57 5 91 34 52 44 100 53 148 29 76 -37 103 -121 61
-183 -54 -80 -136 -89 -209 -23 -24 22 -39 30 -39 21 0 -16 44 -60 77 -77 37
-19 100 -13 142 13 119 76 80 265 -59 283 -54 8 -81 -1 -130 -42 -31 -26 -51
-35 -78 -35 -49 0 -56 8 -60 55 -3 50 -38 172 -59 203 -8 13 -13 25 -11 26 2
2 24 14 49 28 41 22 49 24 70 12 74 -41 180 21 203 119 23 97 -82 201 -182
181 -50 -10 -111 -69 -118 -115 -6 -33 -13 -42 -52 -64 l-45 -25 -15 22 c-20
30 -129 138 -166 164 l-29 21 26 35 c15 19 27 40 27 46 0 6 6 9 14 6 20 -8 90
30 115 61 32 42 37 106 11 159 -28 58 -72 86 -136 86 -90 0 -154 -63 -154
-152 0 -29 6 -52 15 -62 14 -14 14 -17 -5 -36 -12 -12 -26 -35 -32 -50 l-10
-29 -26 19 c-31 21 -158 58 -214 62 -21 1 -38 7 -39 13 -5 67 0 98 20 111 55
39 69 143 27 205 -43 63 -127 87 -191 53z"/>
<path d="M1275 2025 c-22 -8 -47 -17 -57 -21 -33 -12 -31 -52 8 -117 52 -88
61 -96 92 -91 66 12 77 24 82 94 6 76 2 120 -12 120 -5 0 -8 -37 -6 -89 l3
-89 -30 -5 c-16 -2 -37 -7 -45 -10 -11 -5 -26 12 -55 65 -22 40 -41 78 -43 84
-2 6 23 19 55 28 32 9 71 21 87 26 16 5 33 7 39 3 6 -3 7 -1 3 5 -10 16 -71
14 -121 -3z"/>
<path d="M1534 2032 c3 -6 32 -16 64 -22 31 -7 65 -17 75 -22 10 -5 26 -6 35
-3 13 6 7 12 -27 26 -51 23 -158 38 -147 21z"/>
<path d="M1517 2013 c-12 -12 -7 -167 6 -183 14 -18 74 -38 99 -32 18 4 68 76
93 135 30 71 -7 37 -51 -48 -39 -74 -38 -74 -84 -62 l-40 11 0 93 c0 85 -5
104 -23 86z"/>
<path d="M985 1850 c-32 -33 -56 -63 -52 -67 4 -4 36 21 70 55 l63 62 43 -75
c38 -67 61 -92 61 -66 0 18 -73 132 -91 141 -28 15 -31 14 -94 -50z"/>
<path d="M1831 1901 c-15 -10 -91 -144 -91 -162 0 -9 18 -33 41 -53 l40 -37
67 37 c67 37 112 71 112 85 0 4 -25 35 -55 67 -51 56 -90 77 -114 63z m38 -20
c47 -41 122 -113 119 -115 -64 -31 -124 -65 -141 -81 l-22 -20 -33 34 -34 34
27 46 c14 25 34 63 43 83 9 21 17 38 18 38 1 0 11 -9 23 -19z"/>
<path d="M930 1752 c0 -8 10 -14 101 -65 l66 -37 27 21 c14 11 31 30 37 41 9
17 8 18 -9 9 -11 -6 -30 -23 -41 -37 -12 -15 -21 -22 -21 -16 0 6 -31 29 -69
52 -68 39 -91 48 -91 32z"/>
<path d="M1348 1689 c-103 -37 -184 -128 -213 -238 -15 -62 -2 -167 29 -227
128 -248 474 -239 598 15 34 68 33 206 -2 276 -31 65 -104 137 -166 165 -70
32 -172 36 -246 9z m229 -30 c63 -26 109 -65 142 -118 103 -168 32 -379 -151
-456 -21 -8 -48 -15 -62 -15 -14 0 -27 -4 -30 -9 -5 -8 -103 15 -156 37 -51
21 -109 83 -141 149 -28 58 -31 73 -27 137 11 220 228 360 425 275z"/>
<path d="M1380 1508 c-56 -38 -74 -71 -74 -133 1 -89 66 -155 153 -155 87 0
151 66 151 155 0 59 -20 98 -67 130 -49 33 -117 34 -163 3z m148 -20 c32 -17
61 -68 60 -108 -2 -95 -83 -156 -170 -129 -104 34 -121 175 -28 234 35 22 96
23 138 3z"/>
<path d="M890 1617 c19 -13 57 -36 83 -52 40 -23 47 -31 42 -49 -15 -48 -17
-66 -7 -66 6 0 17 18 23 40 16 53 0 75 -82 118 -74 37 -110 43 -59 9z"/>
<path d="M2005 1630 c-4 -6 -24 -19 -46 -31 -67 -34 -78 -47 -73 -91 4 -48 13
-65 24 -47 5 7 4 23 -1 36 -14 38 -13 40 59 82 101 61 101 61 70 61 -15 0 -30
-5 -33 -10z"/>
<path d="M812 1556 c-12 -41 -22 -81 -22 -90 0 -29 18 -17 25 17 4 17 13 51
21 75 16 49 18 72 6 72 -5 0 -19 -33 -30 -74z"/>
<path d="M2070 1622 c0 -7 10 -52 22 -100 25 -95 39 -78 18 22 -10 50 -39 107
-40 78z"/>
<path d="M820 1443 c0 -10 26 -13 95 -13 76 0 93 3 84 13 -7 8 -41 12 -95 12
-61 0 -84 -3 -84 -12z"/>
<path d="M1918 1443 c-8 -10 10 -13 86 -13 53 0 96 4 96 9 0 15 -170 18 -182
4z"/>
<path d="M830 1310 c0 -6 33 -10 80 -10 47 0 80 4 80 10 0 6 -33 10 -80 10
-47 0 -80 -4 -80 -10z"/>
<path d="M1925 1310 c-8 -13 145 -13 165 0 10 7 -12 10 -72 10 -48 0 -90 -4
-93 -10z"/>
<path d="M2330 1310 c0 -5 16 -10 35 -10 19 0 35 5 35 10 0 6 -16 10 -35 10
-19 0 -35 -4 -35 -10z"/>
<path d="M603 1292 c3 -4 8 -25 11 -46 13 -79 48 -197 68 -222 10 -13 0 -24
-21 -24 -9 0 -27 -9 -40 -19 -22 -17 -27 -17 -63 -3 -74 29 -165 -21 -188
-103 -25 -89 21 -171 110 -195 22 -6 52 -8 67 -4 60 14 123 83 123 134 0 13
12 26 35 37 19 9 35 20 35 25 0 4 7 8 15 8 8 0 15 -4 15 -9 0 -14 99 -120 151
-161 l46 -36 -24 -34 c-12 -19 -23 -39 -23 -46 0 -6 -14 -11 -30 -11 -61 0
-121 -66 -127 -140 -8 -94 56 -163 151 -163 110 0 184 104 146 206 -9 22 -6
34 15 69 l25 43 62 -25 c48 -20 141 -42 216 -53 1 0 2 -21 2 -47 0 -39 -5 -53
-30 -78 -67 -69 -60 -173 14 -230 103 -79 246 -10 246 118 0 53 -19 98 -51
121 -17 12 -22 25 -22 63 0 54 -10 48 128 79 44 10 95 26 114 36 35 18 51 16
51 -5 1 -17 37 -63 45 -55 9 8 -18 59 -44 82 -17 15 -23 16 -36 6 -8 -7 -15
-10 -15 -7 0 3 -29 -5 -65 -18 -35 -12 -88 -26 -117 -30 -65 -9 -88 -31 -88
-83 0 -29 9 -50 34 -83 39 -50 49 -113 27 -167 -24 -58 -128 -84 -186 -46 -70
46 -73 157 -7 217 14 13 20 32 21 68 1 72 -9 85 -70 93 -29 4 -92 20 -140 35
l-88 29 -22 -21 c-29 -27 -51 -84 -43 -110 11 -34 5 -99 -12 -125 -21 -31 -73
-62 -107 -62 -35 0 -86 25 -109 54 -12 14 -18 39 -18 79 0 51 4 62 28 87 16
15 48 34 71 41 33 10 48 22 67 54 13 23 24 47 24 54 0 13 -215 231 -228 231
-4 0 -29 -13 -54 -29 -37 -23 -48 -37 -53 -64 -14 -71 -90 -118 -164 -102 -30
6 -90 64 -92 88 -6 68 9 112 49 142 22 16 43 20 107 20 82 0 106 8 138 43 17
19 17 22 -7 95 -14 42 -28 93 -31 114 -12 71 -15 81 -30 87 -9 3 -14 2 -12 -2z"/>
<path d="M790 1284 c0 -22 37 -145 50 -164 15 -23 13 21 -4 72 -8 24 -17 58
-21 76 -7 33 -25 45 -25 16z"/>
<path d="M1003 1273 c3 -16 8 -35 12 -44 5 -13 -12 -28 -74 -65 -88 -52 -102
-82 -16 -35 112 61 125 79 104 140 -14 39 -34 41 -26 4z"/>
<path d="M1895 1290 c-3 -5 -7 -27 -10 -49 -4 -45 2 -52 87 -99 106 -59 104
-34 -2 28 l-70 41 7 44 c5 43 1 56 -12 35z"/>
<path d="M2287 1283 c-3 -10 -8 -36 -12 -58 -3 -22 -17 -77 -31 -123 -14 -46
-23 -90 -20 -97 12 -31 69 -50 154 -50 l84 0 34 -37 c29 -32 34 -45 34 -87 0
-34 -6 -56 -21 -75 -77 -98 -212 -61 -242 65 -7 28 -42 56 -87 69 -31 9 -48
-2 -94 -62 -13 -18 -52 -56 -85 -83 -62 -51 -72 -65 -47 -65 18 0 146 119 177
164 22 33 49 48 49 28 0 -5 15 -16 34 -24 27 -13 34 -24 39 -55 13 -80 105
-135 186 -113 75 20 133 110 116 179 -23 94 -131 156 -205 118 -22 -11 -30
-10 -67 11 -43 24 -62 42 -45 42 10 0 59 158 65 211 3 20 8 42 11 48 4 6 1 11
-8 11 -8 0 -17 -8 -19 -17z"/>
<path d="M2102 1263 c-17 -45 -35 -134 -28 -140 9 -10 33 57 41 115 8 57 3 67
-13 25z"/>
<path d="M1020 1060 c-36 -22 -72 -44 -80 -49 -8 -5 -11 -12 -7 -17 9 -9 107
41 140 71 l22 20 38 -37 c20 -20 33 -39 28 -43 -6 -3 -29 -39 -53 -80 l-42
-75 -66 65 c-36 36 -69 65 -73 65 -23 0 57 -93 109 -127 17 -11 28 -12 42 -4
21 11 92 124 98 156 4 20 -60 95 -81 95 -5 -1 -39 -19 -75 -40z"/>
<path d="M1793 1078 c-55 -39 -61 -62 -33 -115 32 -61 80 -126 87 -119 3 3
-15 42 -41 87 l-46 81 32 38 c25 30 35 35 43 25 14 -19 127 -85 144 -85 24 0
-7 27 -77 67 -37 21 -69 39 -72 41 -3 1 -20 -8 -37 -20z"/>
<path d="M1918 914 c-32 -31 -58 -58 -58 -60 0 -22 101 60 121 98 17 32 -5 19
-63 -38z"/>
<path d="M1279 943 c-26 -30 -89 -138 -89 -150 0 -29 18 -9 64 71 42 73 51 83
63 70 8 -8 25 -14 39 -14 24 0 24 -1 24 -90 0 -53 4 -90 10 -90 13 0 13 156 0
180 -6 11 -27 24 -48 30 -48 13 -47 13 -63 -7z"/>
<path d="M1566 945 c-21 -7 -43 -20 -48 -27 -14 -21 -5 -193 10 -191 6 2 12
-2 12 -8 0 -17 110 1 162 27 22 11 26 19 22 41 -7 37 -87 167 -105 170 -8 1
-32 -4 -53 -12z m113 -109 c24 -43 38 -75 32 -72 -6 4 -30 0 -54 -8 -24 -8
-61 -16 -81 -18 l-36 -3 -3 91 -2 91 40 9 c49 12 50 11 104 -90z"/>
<path d="M1190 764 c0 -12 90 -43 140 -49 51 -7 54 -6 35 9 -11 8 -30 16 -42
16 -12 0 -34 5 -50 11 -32 12 -83 20 -83 13z"/>
<path d="M1940 657 c0 -16 48 -87 60 -88 19 -3 25 -5 63 -23 46 -23 67 -60 67
-119 0 -124 -159 -172 -235 -71 -9 12 -14 43 -15 82 0 34 -4 62 -9 62 -27 0
-28 -103 -1 -148 29 -46 76 -72 134 -72 64 0 108 28 136 86 26 53 21 117 -11
159 -24 30 -92 67 -111 60 -8 -3 -22 12 -37 40 -23 44 -41 58 -41 32z"/>
</g>
</svg>
